<svg width="42" height="43" viewBox="0 0 42 43" fill="none" xmlns="http://www.w3.org/2000/svg">
<path d="M26.2398 5.92979V8.54967H28.8596V5.92979H26.2398ZM31.4795 5.92979V8.54967H34.0994V5.92979H31.4795ZM26.2398 11.1696V13.7894H28.8596V11.1696H26.2398ZM31.4795 11.1696V13.7894H34.0994V11.1696H31.4795ZM26.2398 16.4093V19.0292H28.8596V16.4093H26.2398ZM31.4795 16.4093V19.0292H34.0994V16.4093H31.4795ZM26.2398 21.6491V24.269H28.8596V21.6491H26.2398ZM31.4795 21.6491V24.269H34.0994V21.6491H31.4795ZM26.2398 26.8889V29.5087H28.8596V26.8889H26.2398ZM31.4795 26.8889V29.5087H34.0994V26.8889H31.4795ZM36.7193 0.690025C38.1651 0.690025 39.3392 1.86406 39.3392 3.30991V39.9883C39.3392 41.4341 38.1651 42.6082 36.7193 42.6082H7.90058C6.45474 42.6082 5.2807 41.4341 5.2807 39.9883V13.7894C5.2807 12.3436 6.45474 11.1696 7.90058 11.1696H21V3.30991C21 1.86406 22.174 0.690025 23.6199 0.690025H36.7193ZM15.7602 39.9883V34.7485H13.1403V39.9883H15.7602ZM18.3801 39.9883H21V13.7894H7.90058V39.9883H10.5205V34.7485V32.1286H13.1403H15.7602H18.3801V34.7485V39.9883ZM31.4795 39.9883V34.7485H28.8596V39.9883H31.4795ZM36.7193 39.9883V3.30991H23.6199V13.7894V39.9883H26.2398V32.1286H28.8596H31.4795H34.0994V34.7485V39.9883H36.7193ZM10.5205 16.4093V19.0292H13.1403V16.4093H10.5205ZM15.7602 16.4093V19.0292H18.3801V16.4093H15.7602ZM10.5205 21.6491V24.269H13.1403V21.6491H10.5205ZM15.7602 21.6491V24.269H18.3801V21.6491H15.7602ZM10.5205 26.8889V29.5087H13.1403V26.8889H10.5205ZM15.7602 26.8889V29.5087H18.3801V26.8889H15.7602Z" fill="#E6AE48"/>
</svg>
